<svg xmlns="http://www.w3.org/2000/svg" width="64" height="64" viewBox="0 0 64 64">
  <circle cx="32" cy="32" r="32" fill="#111" />
  <circle cx="32" cy="30" r="15" fill="#F5CFA0" />
  <path d="M17 30
           C17 18, 26 14, 33 14
           C42 14, 47 20, 47 29
           C43 27, 39 26, 34 26
           C27 26, 22 27.5, 19 29.5
           Z"
        fill="#000000" />
  <rect x="27" y="38" width="10" height="6" rx="1" fill="#F5CFA0" />
  <path d="M22 44
           L42 44
           L50 56
           L14 56
           Z"
        fill="#000000" />
  <rect x="22" y="25" width="8" height="6" rx="2" fill="none" stroke="#C0C6CC" stroke-width="1.5" />
  <rect x="34" y="25" width="8" height="6" rx="2" fill="none" stroke="#C0C6CC" stroke-width="1.5" />
  <line x1="30" y1="28" x2="34" y2="28" stroke="#C0C6CC" stroke-width="1.2" />
  <circle cx="26" cy="28" r="1.3" fill="#111111" />
  <circle cx="38" cy="28" r="1.3" fill="#111111" />
  <path d="M27 33
           Q32 36 37 33
           Q32 38 27 33
           Z"
        fill="#FFFFFF" />
</svg>
